<?xml version="1.0" encoding="utf-8"?>
<!-- Generator: Adobe Illustrator 23.0.1, SVG Export Plug-In . SVG Version: 6.00 Build 0)  -->
<svg version="1.1" id="Camada_1" xmlns="http://www.w3.org/2000/svg" xmlns:xlink="http://www.w3.org/1999/xlink" x="0px" y="0px"
	 viewBox="0 0 188 70.2" style="enable-background:new 0 0 188 70.2;" xml:space="preserve">
<style type="text/css">
	.st0{fill:#39B54A;}
	.st1{fill:#ED1C24;}
</style>
<path class="st0" d="M21.9,57.4c-1.2,0.1-2.4-0.2-3.4-0.8c-2.6-1.4-5-3.2-7.4-4.9c-0.9-0.7-1.3-1.5-0.7-2.5c0.7-1.1,1.7-1.1,2.8-0.4
	c1.9,1.3,3.9,2.6,5.7,3.9c1.6,1.1,3,1.1,4.6-0.2c4.3-3.6,8.7-7,12.2-11.3c2.5-3.1,4.4-6.4,4.9-10.4c0.5-4.6-1.5-8.2-5.4-9.7
	c-4.2-1.6-8.9,0-11.3,3.7c-0.2,0.3-0.4,0.6-0.6,0.9c-1.3,1.9-2.8,1.8-3.7-0.3c-1.6-3.5-4.3-5.1-8.1-4.9C5.2,20.8,1.7,27,4.8,32.6
	c0.7,1.3,1.6,2.5,2.7,3.5c3.7,3.8,8,6.8,12.5,9.7c0.9,0.6,1.6,0.6,2.4-0.2c3.6-3.3,7.2-6.6,10-10.6c1.5-2.1,3.5-4.3,1-7.1
	c-0.5-0.6-0.2-1.5,0.5-2.1c0.7-0.6,1.7-0.6,2.3,0c1.8,1.5,2.3,3.5,1.9,5.7c-0.6,3.4-2.8,5.9-5,8.5c-3,3.4-6.3,6.6-9.8,9.6
	c-1,0.9-2,1.2-3.2,0.5C13.3,45.9,6.5,41.7,2,34.9c-4.3-6.4-1-14.2,4-16.7c4.6-2.4,10.6-1.7,14.3,2c1.1,1,1.6,0.9,2.7,0
	c5-4.4,12.4-4.4,17.2-0.3c4,3.4,5.2,9.3,3.1,15.2c-2.2,6.2-6.6,10.9-11.4,15.2c-1.5,1.2-3.2,2.1-4.3,3.7l-2.9,2.2
	c-0.5,0.1-0.9,0.4-1.2,0.8l-0.8,0.2C22.4,56.9,22.1,57,21.9,57.4z"/>
<circle class="st1" cx="27.2" cy="12.8" r="2.3"/>
<circle class="st1" cx="47.4" cy="19.3" r="2.6"/>
<circle class="st1" cx="34.1" cy="12.2" r="2.7"/>
<circle class="st1" cx="41.5" cy="13.6" r="3.3"/>
<path class="st0" d="M53.1,23.6h4.3v18.7c0,2.5,0.8,4.4,2.3,5.6s3.7,1.8,6.5,1.9c2.8,0,4.9-0.6,6.5-1.8c1.6-1.2,2.4-3.1,2.4-5.6
	V23.6h4.3v18.2c0,7.8-4.4,11.8-13.2,11.8S53,49.6,53,41.8L53.1,23.6z"/>
<path class="st0" d="M85,31.4h4.1v3.2h0.1c0.9-1.4,2.1-2.4,3.6-3c1.5-0.6,3.2-1,4.8-0.9c2.7,0,4.9,0.6,6.5,1.9
	c1.6,1.2,2.5,3.1,2.5,5.7v14.6h-4.1V39c0-1.6-0.5-2.8-1.6-3.7s-2.6-1.3-4.8-1.3c-1.8-0.1-3.6,0.5-5,1.7c-1.4,1.1-2,2.7-2,4.7v12.4
	H85V31.4z"/>
<path class="st0" d="M111.6,23.4h4.1v4.5h-4.1V23.4z M111.6,31.4h4.1v21.4h-4.1V31.4z"/>
<path class="st0" d="M120.6,31.4h4.1v3h0.1c0.9-1.2,2-2.1,3.4-2.6c1.5-0.6,3.1-0.9,4.7-0.9c1.6,0,3.1,0.2,4.6,0.8
	c1.4,0.5,2.6,1.2,3.7,2.2c1.1,1,1.9,2.2,2.5,3.6c0.6,1.5,0.9,3.1,0.9,4.8c0,1.6-0.3,3.2-0.9,4.7c-0.6,1.4-1.4,2.6-2.5,3.6
	c-1.1,1-2.3,1.7-3.7,2.2c-1.5,0.5-3,0.8-4.6,0.8c-1.6,0-3.2-0.3-4.7-0.9c-1.4-0.5-2.5-1.4-3.4-2.6h-0.1v11h-4.1V31.4z M139.8,39.2
	c-0.3-0.9-0.8-1.8-1.4-2.5c-0.7-0.8-1.5-1.4-2.5-1.8c-1.1-0.4-2.3-0.7-3.5-0.6c-1.2,0-2.4,0.2-3.5,0.6c-1,0.4-1.8,1-2.5,1.7
	c-0.7,0.7-1.2,1.6-1.5,2.5c-0.3,1-0.5,2-0.5,3c0,2.4,0.7,4.3,2.2,5.8c1.4,1.4,3.4,2.1,5.8,2.1c2.4,0,4.3-0.7,5.7-2.1
	c1.4-1.4,2.1-3.3,2.1-5.7C140.3,41.2,140.1,40.2,139.8,39.2z"/>
<path class="st0" d="M152.1,43.3c0.1,1,0.3,2,0.8,2.9c0.5,0.8,1.1,1.6,1.8,2.1c0.7,0.6,1.6,1,2.5,1.3c0.9,0.3,1.8,0.5,2.7,0.4
	c1.3,0,2.6-0.2,3.8-0.8c0.7-0.3,1.3-0.7,1.8-1.2c0.5-0.5,1-1.1,1.3-1.8h4.3c-0.5,1.2-1.1,2.3-1.9,3.3c-0.8,0.9-1.7,1.7-2.7,2.3
	c-1,0.6-2,1-3.1,1.3c-1.1,0.3-2.2,0.4-3.3,0.4c-1.8,0-3.7-0.3-5.4-0.9c-1.5-0.5-2.8-1.4-3.9-2.5c-1-1-1.8-2.3-2.3-3.6
	c-1-2.9-1-6,0-8.9c0.5-1.4,1.3-2.6,2.3-3.6c1.1-1.1,2.5-1.9,3.9-2.5c1.7-0.6,3.5-0.9,5.4-0.9c1.5,0,2.9,0.2,4.3,0.7
	c1.4,0.4,2.6,1.2,3.7,2.1c1.2,1,2.1,2.3,2.6,3.8c0.7,1.8,1,3.6,1,5.5v0.5L152.1,43.3z M167.4,40.1c-0.2-1.8-1.1-3.4-2.5-4.5
	c-1.4-1.1-3.2-1.6-5-1.6c-1.8,0-3.6,0.5-5.1,1.6c-1.4,1.1-2.4,2.6-2.6,4.4H167.4z"/>
<path class="st0" d="M177.7,24.8h4.1v6.6h6.1v3.2h-6.1v13.2c-0.1,0.7,0.3,1.4,0.8,1.8c0.6,0.4,1.4,0.5,2.5,0.6
	c0.9,0,1.9-0.1,2.8-0.3v3.4c-1.5,0.2-3,0.3-4.6,0.3c-1.9,0-3.4-0.4-4.3-1.3c-0.9-0.9-1.4-2.1-1.4-3.7V34.6h-4.4v-3.2h4.4V24.8z"/>
</svg>
